<svg width="45" height="45" viewBox="0 0 45 45" fill="none" xmlns="http://www.w3.org/2000/svg">
    <g clip-path="url(#clip0_600_2226)">
        <path d="M29.999 15.0006C29.6474 14.6491 29.1705 14.4517 28.6733 14.4517C28.1762 14.4517 27.6993 14.6491 27.3477 15.0006L22.499 19.8494L17.6502 15.0006C17.2966 14.6591 16.823 14.4701 16.3314 14.4744C15.8397 14.4786 15.3695 14.6758 15.0218 15.0235C14.6742 15.3711 14.477 15.8414 14.4727 16.333C14.4685 16.8246 14.6574 17.2983 14.999 17.6519L19.8477 22.5006L14.999 27.3494C14.6574 27.703 14.4685 28.1766 14.4727 28.6683C14.477 29.1599 14.6742 29.6302 15.0218 29.9778C15.3695 30.3254 15.8397 30.5226 16.3314 30.5269C16.823 30.5312 17.2966 30.3422 17.6502 30.0006L22.499 25.1519L27.3477 30.0006C27.7013 30.3422 28.175 30.5312 28.6666 30.5269C29.1582 30.5226 29.6285 30.3254 29.9761 29.9778C30.3238 29.6302 30.521 29.1599 30.5252 28.6683C30.5295 28.1766 30.3405 27.703 29.999 27.3494L25.1502 22.5006L29.999 17.6519C30.3505 17.3003 30.5479 16.8234 30.5479 16.3263C30.5479 15.8291 30.3505 15.3522 29.999 15.0006Z" fill="#629C86"/>
        <path d="M22.5 0C18.0499 0 13.6998 1.3196 9.99968 3.79193C6.29957 6.26427 3.41569 9.77829 1.71272 13.8896C0.00974894 18.001 -0.435826 22.525 0.432341 26.8895C1.30051 31.2541 3.44343 35.2632 6.59011 38.4099C9.73679 41.5566 13.7459 43.6995 18.1105 44.5677C22.4751 45.4358 26.9991 44.9903 31.1104 43.2873C35.2217 41.5843 38.7357 38.7004 41.2081 35.0003C43.6804 31.3002 45 26.9501 45 22.5C44.9936 16.5346 42.621 10.8154 38.4028 6.59722C34.1846 2.37905 28.4654 0.00645203 22.5 0V0ZM22.5 41.25C18.7916 41.25 15.1665 40.1503 12.0831 38.0901C8.99965 36.0298 6.59641 33.1014 5.17727 29.6753C3.75813 26.2492 3.38681 22.4792 4.11029 18.8421C4.83376 15.2049 6.61952 11.864 9.24176 9.24175C11.864 6.61951 15.2049 4.83375 18.8421 4.11028C22.4792 3.3868 26.2492 3.75812 29.6753 5.17726C33.1014 6.5964 36.0298 8.99964 38.0901 12.0831C40.1503 15.1665 41.25 18.7916 41.25 22.5C41.2446 27.4711 39.2674 32.2371 35.7522 35.7522C32.2371 39.2673 27.4711 41.2445 22.5 41.25Z" fill="#629C86"/>
    </g>
    <defs>
        <clipPath id="clip0_600_2226">
            <rect width="45" height="45" fill="white"/>
        </clipPath>
    </defs>
</svg>
