<svg width="21" height="27" viewBox="0 0 21 27" fill="none" xmlns="http://www.w3.org/2000/svg">
    <path d="M19.0026 26.0107C18.7153 26.0107 18.4397 25.8966 18.2366 25.6934C18.0334 25.4903 17.9193 25.2147 17.9193 24.9274C17.9193 22.9162 17.1203 20.9873 15.6982 19.5652C14.276 18.143 12.3472 17.3441 10.3359 17.3441C8.32471 17.3441 6.39586 18.143 4.97371 19.5652C3.55156 20.9873 2.7526 22.9162 2.7526 24.9274C2.7526 25.2147 2.63847 25.4903 2.4353 25.6934C2.23214 25.8966 1.95659 26.0107 1.66927 26.0107C1.38195 26.0107 1.1064 25.8966 0.903238 25.6934C0.700074 25.4903 0.585938 25.2147 0.585938 24.9274C0.585938 22.3415 1.61317 19.8616 3.44165 18.0331C5.27013 16.2046 7.75008 15.1774 10.3359 15.1774C12.9218 15.1774 15.4017 16.2046 17.2302 18.0331C19.0587 19.8616 20.0859 22.3415 20.0859 24.9274C20.0859 25.2147 19.9718 25.4903 19.7686 25.6934C19.5655 25.8966 19.2899 26.0107 19.0026 26.0107ZM10.3359 13.0107C9.05036 13.0107 7.79365 12.6295 6.72473 11.9153C5.65581 11.2011 4.82269 10.1859 4.33072 8.99819C3.83875 7.81047 3.71003 6.50353 3.96083 5.24266C4.21164 3.98178 4.8307 2.82359 5.73974 1.91455C6.64878 1.00551 7.80697 0.386445 9.06785 0.135641C10.3287 -0.115163 11.6357 0.0135585 12.8234 0.505528C14.0111 0.997498 15.0263 1.83062 15.7405 2.89954C16.4547 3.96846 16.8359 5.22517 16.8359 6.51074C16.8342 8.23412 16.1488 9.88643 14.9302 11.105C13.7116 12.3237 12.0593 13.009 10.3359 13.0107ZM10.3359 2.17741C9.47888 2.17741 8.64108 2.43156 7.92847 2.90771C7.21585 3.38386 6.66044 4.06064 6.33246 4.85245C6.00448 5.64426 5.91867 6.51555 6.08587 7.35614C6.25307 8.19672 6.66578 8.96885 7.27181 9.57487C7.87783 10.1809 8.64996 10.5936 9.49055 10.7608C10.3311 10.928 11.2024 10.8422 11.9942 10.5142C12.786 10.1862 13.4628 9.63083 13.939 8.91821C14.4151 8.2056 14.6693 7.3678 14.6693 6.51074C14.6693 5.36147 14.2127 4.25927 13.4001 3.44662C12.5874 2.63396 11.4852 2.17741 10.3359 2.17741Z" fill="#90D2B9"/>
</svg>
