<svg width="30" height="30" viewBox="0 0 30 30" fill="none" xmlns="http://www.w3.org/2000/svg">
    <circle cx="15.1062" cy="14.9485" r="14.5139" fill="white"/>
    <g clip-path="url(#clip0_609_3975)">
        <path d="M14.9998 15C15.5931 15 16.1731 14.8241 16.6665 14.4944C17.1598 14.1648 17.5443 13.6962 17.7714 13.1481C17.9985 12.5999 18.0579 11.9967 17.9421 11.4147C17.8264 10.8328 17.5406 10.2982 17.1211 9.87868C16.7015 9.45912 16.167 9.1734 15.585 9.05765C15.0031 8.94189 14.3999 9.0013 13.8517 9.22836C13.3035 9.45543 12.835 9.83994 12.5053 10.3333C12.1757 10.8266 11.9998 11.4067 11.9998 12C12.0006 12.7954 12.3169 13.558 12.8793 14.1204C13.4417 14.6829 14.2044 14.9992 14.9998 15ZM14.9998 10C15.3953 10 15.782 10.1173 16.1109 10.3371C16.4398 10.5568 16.6961 10.8692 16.8475 11.2346C16.9989 11.6001 17.0385 12.0022 16.9613 12.3902C16.8842 12.7781 16.6937 13.1345 16.414 13.4142C16.1343 13.6939 15.7779 13.8844 15.3899 13.9616C15.002 14.0387 14.5998 13.9991 14.2344 13.8478C13.8689 13.6964 13.5566 13.44 13.3368 13.1111C13.1171 12.7822 12.9998 12.3956 12.9998 12C12.9998 11.4696 13.2105 10.9609 13.5855 10.5858C13.9606 10.2107 14.4693 10 14.9998 10V10Z" fill="#629C86"/>
        <path d="M14.9998 16C13.8067 16.0013 12.6629 16.4759 11.8192 17.3195C10.9756 18.1631 10.5011 19.3069 10.4998 20.5C10.4998 20.6326 10.5524 20.7598 10.6462 20.8536C10.74 20.9473 10.8671 21 10.9998 21C11.1324 21 11.2595 20.9473 11.3533 20.8536C11.4471 20.7598 11.4998 20.6326 11.4998 20.5C11.4998 19.5717 11.8685 18.6815 12.5249 18.0251C13.1813 17.3687 14.0715 17 14.9998 17C15.928 17 16.8183 17.3687 17.4746 18.0251C18.131 18.6815 18.4998 19.5717 18.4998 20.5C18.4998 20.6326 18.5524 20.7598 18.6462 20.8536C18.74 20.9473 18.8671 21 18.9998 21C19.1324 21 19.2595 20.9473 19.3533 20.8536C19.4471 20.7598 19.4998 20.6326 19.4998 20.5C19.4984 19.3069 19.0239 18.1631 18.1803 17.3195C17.3366 16.4759 16.1928 16.0013 14.9998 16V16Z" fill="#629C86"/>
    </g>
    <defs>
        <clipPath id="clip0_609_3975">
            <rect width="12" height="12" fill="white" transform="translate(8.99976 9)"/>
        </clipPath>
    </defs>
</svg>
