<svg width="102" height="102" viewBox="0 0 102 102" fill="none" xmlns="http://www.w3.org/2000/svg">
<g clip-path="url(#clip0_530_6913)">
<path d="M32.94 21.2156C32.6253 21.5429 32.3685 21.9214 32.1807 22.3348L32.158 22.3121L0.379365 93.8991L0.410532 93.9303C-0.178802 95.0721 0.807199 97.3955 2.82737 99.4184C4.84753 101.439 7.17087 102.425 8.3127 101.835L8.34103 101.864L79.928 70.0821L79.9054 70.0566C80.3219 69.8583 80.7044 69.6175 81.0245 69.2945C85.4502 64.8688 78.2734 50.518 64.9992 37.241C51.7194 23.964 37.3685 16.79 32.94 21.2156Z" fill="#629C86"/>
<path d="M36.833 34L1.17837 92.1003L0.379365 93.8995L0.410532 93.9307C-0.178802 95.0725 0.807199 97.3958 2.82737 99.4188C3.4847 100.076 4.16753 100.575 4.8362 100.997L48.1664 48.1667L36.833 34Z" fill="#90BBAB"/>
<path d="M65.2006 37.0213C78.4322 50.2587 85.7791 64.3687 81.6027 68.5393C77.4292 72.7157 63.3192 65.3717 50.0791 52.14C36.8445 38.9027 29.5006 24.787 33.6741 20.6135C37.8504 16.44 51.9604 23.784 65.2006 37.0213Z" fill="#45866D"/>
<path d="M52.6719 38.5583C52.383 38.7927 52.0503 38.9672 51.6933 39.0718C51.3363 39.1764 50.962 39.2089 50.5923 39.1674C48.1329 38.9011 46.0646 38.0454 44.6168 36.6939C43.0839 35.2631 42.3274 33.3421 42.5343 31.4183C42.8969 28.0409 46.2856 24.9413 52.0628 25.5646C54.3096 25.8054 55.3126 25.0829 55.3466 24.7373C55.3863 24.3944 54.5618 23.4736 52.3149 23.2299C49.8556 22.9636 47.7873 22.1079 46.3366 20.7564C44.8038 19.3256 44.0444 17.4046 44.2541 15.4808C44.6224 12.1034 48.0083 9.00378 53.7798 9.62994C55.4174 9.80561 56.2816 9.46844 56.6471 9.25028C56.9389 9.07178 57.0551 8.90178 57.0664 8.80261C57.1004 8.45978 56.2873 7.53894 54.0348 7.29528C53.6647 7.25576 53.306 7.14355 52.9793 6.9651C52.6527 6.78665 52.3645 6.54547 52.1313 6.25538C51.898 5.96529 51.7244 5.63201 51.6202 5.27466C51.5161 4.9173 51.4835 4.54291 51.5244 4.17294C51.5636 3.80295 51.6755 3.44434 51.8536 3.11771C52.0318 2.79108 52.2727 2.50285 52.5626 2.2696C52.8524 2.03634 53.1855 1.86264 53.5427 1.75847C53.8999 1.65431 54.2741 1.62173 54.6439 1.66261C60.4154 2.28311 63.0674 6.03161 62.7019 9.41178C62.3336 12.7948 58.9478 15.8888 53.1706 15.2683C51.5329 15.0898 50.6773 15.4298 50.3089 15.6479C50.0171 15.8236 49.8981 15.9964 49.8868 16.0928C49.8499 16.4384 50.6688 17.3564 52.9213 17.6001C58.6928 18.2234 61.3448 21.9691 60.9793 25.3493C60.6138 28.7266 57.2279 31.8263 51.4536 31.2001C49.8159 31.0244 48.9546 31.3644 48.5863 31.5798C48.2916 31.7611 48.1783 31.9311 48.1669 32.0274C48.1301 32.3703 48.9489 33.2911 51.1986 33.5348C51.7557 33.5949 52.2825 33.8189 52.7123 34.1783C53.1421 34.5378 53.4557 35.0167 53.6134 35.5544C53.7711 36.092 53.7658 36.6644 53.5982 37.1991C53.4307 37.7338 53.1083 38.2068 52.6719 38.5583Z" fill="#FD935E"/>
<path d="M86.8727 64.7615C92.4629 63.1833 96.319 65.6767 97.237 68.9492C98.155 72.2188 96.166 76.3583 90.5787 77.9308C88.397 78.5428 87.7425 79.5855 87.8304 79.917C87.9267 80.2513 89.0345 80.801 91.2105 80.1862C96.7979 78.6137 100.654 81.107 101.572 84.3767C102.496 87.6492 100.501 91.783 94.9109 93.3583C92.732 93.9703 92.0747 95.0158 92.171 95.3473C92.2645 95.6788 93.3695 96.2285 95.5484 95.6165C95.9098 95.5048 96.29 95.4665 96.6665 95.5041C97.043 95.5417 97.4082 95.6543 97.7405 95.8352C98.0727 96.0162 98.3654 96.2619 98.6012 96.5578C98.8369 96.8537 99.0111 97.1939 99.1132 97.5582C99.2154 97.9225 99.2436 98.3035 99.1962 98.6789C99.1487 99.0543 99.0265 99.4163 98.8369 99.7437C98.6472 100.071 98.3939 100.357 98.0919 100.585C97.7898 100.813 97.4452 100.978 97.0784 101.071C91.4939 102.643 87.6349 100.156 86.7112 96.8802C85.7932 93.6105 87.785 89.4767 93.378 87.9013C95.5597 87.2865 96.2142 86.2467 96.1179 85.9123C96.0272 85.5808 94.9222 85.0283 92.7462 85.6403C87.1532 87.2157 83.2999 84.728 82.379 81.4498C81.4582 78.1802 83.45 74.0463 89.0402 72.4682C91.2162 71.859 91.8707 70.8107 91.78 70.482C91.6837 70.1477 90.5815 69.598 88.4027 70.21C88.0385 70.3327 87.6532 70.38 87.2702 70.3491C86.8871 70.3182 86.5144 70.2097 86.1746 70.0301C85.8348 69.8506 85.5351 69.6039 85.2937 69.3049C85.0523 69.0059 84.8742 68.6609 84.7703 68.2909C84.6664 67.921 84.6389 67.5337 84.6893 67.1528C84.7398 66.7718 84.8673 66.4051 85.0639 66.075C85.2606 65.7448 85.5224 65.4581 85.8333 65.2323C86.1443 65.0065 86.4979 64.8463 86.8727 64.7615Z" fill="#77B255"/>
<path d="M65.1698 57.1198C64.5831 57.119 64.011 56.9362 63.5325 56.5967C63.054 56.2572 62.6926 55.7776 62.498 55.2241C62.3034 54.6705 62.2853 54.0703 62.4462 53.506C62.607 52.9418 62.9389 52.4413 63.3961 52.0736C64.0138 51.5778 78.7471 40.0064 99.5693 42.9843C99.946 43.0268 100.31 43.1446 100.641 43.3305C100.971 43.5165 101.261 43.7668 101.493 44.0668C101.724 44.3667 101.894 44.7101 101.991 45.0767C102.087 45.4432 102.109 45.8255 102.056 46.2007C102.002 46.576 101.874 46.9367 101.678 47.2615C101.483 47.5862 101.224 47.8684 100.917 48.0914C100.61 48.3143 100.262 48.4734 99.893 48.5593C99.5237 48.6452 99.141 48.6561 98.7675 48.5914C80.3706 45.9791 67.071 56.3944 66.9406 56.4993C66.4381 56.9014 65.8135 57.1203 65.1698 57.1198Z" fill="#FD935E"/>
<path d="M16.3031 45.3341C15.8615 45.3341 15.4259 45.2309 15.0313 45.0327C14.6366 44.8345 14.2938 44.5468 14.0301 44.1925C13.7664 43.8383 13.5892 43.4273 13.5125 42.9924C13.4359 42.5574 13.462 42.1106 13.5887 41.6876C16.7989 30.9974 19.7087 13.9379 16.1331 9.48958C15.7336 8.98524 15.1301 8.48941 13.7474 8.59424C11.0897 8.79824 11.3419 14.4054 11.3447 14.4621C11.3807 14.8374 11.3414 15.2162 11.2291 15.5762C11.1169 15.9362 10.9338 16.2701 10.6908 16.5584C10.4478 16.8468 10.1497 17.0837 9.81392 17.2553C9.47816 17.427 9.11151 17.5298 8.73548 17.5579C8.35944 17.586 7.98158 17.5388 7.62404 17.419C7.2665 17.2991 6.93647 17.1092 6.6533 16.8601C6.37013 16.6111 6.13952 16.3081 5.97498 15.9688C5.81044 15.6295 5.71528 15.2608 5.69508 14.8842C5.40325 10.9771 6.61875 3.45174 13.3224 2.94458C16.3144 2.71791 18.7992 3.75774 20.5531 5.93941C27.2709 14.3006 20.4511 38.5397 19.0174 43.3167C18.842 43.9001 18.4832 44.4114 17.9942 44.7748C17.5053 45.1382 16.9123 45.3343 16.3031 45.3341Z" fill="#77B255"/>
<path d="M72.2499 31.167C74.5971 31.167 76.4999 29.2642 76.4999 26.917C76.4999 24.5698 74.5971 22.667 72.2499 22.667C69.9027 22.667 67.9999 24.5698 67.9999 26.917C67.9999 29.2642 69.9027 31.167 72.2499 31.167Z" fill="#5C913B"/>
<path d="M5.66667 56.6673C8.79628 56.6673 11.3333 54.1303 11.3333 51.0007C11.3333 47.871 8.79628 45.334 5.66667 45.334C2.53705 45.334 0 47.871 0 51.0007C0 54.1303 2.53705 56.6673 5.66667 56.6673Z" fill="#9266CC"/>
<path d="M92.0835 59.5C94.4307 59.5 96.3335 57.5972 96.3335 55.25C96.3335 52.9028 94.4307 51 92.0835 51C89.7363 51 87.8335 52.9028 87.8335 55.25C87.8335 57.5972 89.7363 59.5 92.0835 59.5Z" fill="#5C913B"/>
<path d="M66.5835 93.5C68.9307 93.5 70.8335 91.5972 70.8335 89.25C70.8335 86.9028 68.9307 85 66.5835 85C64.2363 85 62.3335 86.9028 62.3335 89.25C62.3335 91.5972 64.2363 93.5 66.5835 93.5Z" fill="#5C913B"/>
<path d="M79.3333 16.9993C82.4629 16.9993 85 14.4623 85 11.3327C85 8.20307 82.4629 5.66602 79.3333 5.66602C76.2037 5.66602 73.6666 8.20307 73.6666 11.3327C73.6666 14.4623 76.2037 16.9993 79.3333 16.9993Z" fill="#FFCC4D"/>
<path d="M92.0835 28.334C94.4307 28.334 96.3335 26.4312 96.3335 24.084C96.3335 21.7368 94.4307 19.834 92.0835 19.834C89.7363 19.834 87.8335 21.7368 87.8335 24.084C87.8335 26.4312 89.7363 28.334 92.0835 28.334Z" fill="#FFCC4D"/>
<path d="M83.5834 39.666C85.9306 39.666 87.8334 37.7632 87.8334 35.416C87.8334 33.0688 85.9306 31.166 83.5834 31.166C81.2362 31.166 79.3334 33.0688 79.3334 35.416C79.3334 37.7632 81.2362 39.666 83.5834 39.666Z" fill="#FFCC4D"/>
<path d="M21.25 70.833C23.5972 70.833 25.5 68.9302 25.5 66.583C25.5 64.2358 23.5972 62.333 21.25 62.333C18.9028 62.333 17 64.2358 17 66.583C17 68.9302 18.9028 70.833 21.25 70.833Z" fill="#FFCC4D"/>
</g>
<defs>
<clipPath id="clip0_530_6913">
<rect width="102" height="102" fill="white"/>
</clipPath>
</defs>
</svg>
