<svg width="13" height="16" viewBox="0 0 13 16" fill="none" xmlns="http://www.w3.org/2000/svg">
    <path d="M10.2145 8C11.5945 6.77963 12.5205 5.12794 12.8418 3.314C12.9026 2.90544 12.8745 2.48858 12.7595 2.09188C12.6444 1.69517 12.4451 1.32796 12.1751 1.01533C11.9011 0.696718 11.5614 0.44105 11.1794 0.265813C10.7974 0.0905767 10.3821 -9.44968e-05 9.96181 7.39022e-08H3.78581C3.36561 0.000172087 2.9504 0.0910329 2.56853 0.266377C2.18667 0.44172 1.84714 0.697416 1.57315 1.016C1.30295 1.32889 1.10351 1.69643 0.988452 2.0935C0.873394 2.49056 0.845432 2.9078 0.90648 3.31667C1.22625 5.12994 2.15182 6.78106 3.53181 8C2.15231 9.21914 1.22723 10.8702 0.907814 12.6833C0.846766 13.0922 0.874727 13.5094 0.989786 13.9065C1.10484 14.3036 1.30429 14.6711 1.57448 14.984C1.84833 15.3024 2.18764 15.558 2.56926 15.7333C2.95088 15.9087 3.36584 15.9996 3.78581 16H9.96181C10.3819 15.9999 10.7969 15.9091 11.1787 15.7339C11.5605 15.5587 11.8999 15.3031 12.1738 14.9847C12.4439 14.6723 12.6433 14.3052 12.7584 13.9085C12.8734 13.5119 12.9014 13.0951 12.8405 12.6867C12.5197 10.8726 11.5941 9.2207 10.2145 8ZM10.6585 13.6793C10.5722 13.7797 10.4654 13.8603 10.3451 13.9157C10.2249 13.971 10.0942 13.9998 9.96181 14H3.78581C3.65341 13.9999 3.52259 13.9713 3.40225 13.916C3.28192 13.8608 3.1749 13.7803 3.08848 13.68C3.00573 13.5854 2.94457 13.4738 2.90923 13.3532C2.87389 13.2326 2.86521 13.1057 2.88381 12.9813C3.10848 11.4853 4.04781 10.0727 5.67581 8.78533C5.7943 8.69173 5.89005 8.5725 5.95587 8.4366C6.0217 8.30071 6.0559 8.15167 6.0559 8.00067C6.0559 7.84967 6.0217 7.70063 5.95587 7.56473C5.89005 7.42883 5.7943 7.30961 5.67581 7.216C4.04781 5.928 3.10848 4.51533 2.88381 3.01933C2.86521 2.895 2.87389 2.76811 2.90923 2.64747C2.94457 2.52682 3.00573 2.41531 3.08848 2.32067C3.17483 2.22023 3.28183 2.1396 3.40217 2.08426C3.5225 2.02892 3.65336 2.00018 3.78581 2H9.96181C10.0942 2.00024 10.2249 2.029 10.3451 2.08434C10.4654 2.13968 10.5722 2.22028 10.6585 2.32067C10.7413 2.41491 10.8027 2.52601 10.8384 2.64629C10.874 2.76658 10.8832 2.89317 10.8651 3.01733C10.6418 4.50733 9.70181 5.92 8.07115 7.21733C7.95339 7.31098 7.85828 7.43 7.79291 7.56551C7.72754 7.70103 7.69359 7.84954 7.69359 8C7.69359 8.15046 7.72754 8.29898 7.79291 8.43449C7.85828 8.57 7.95339 8.68902 8.07115 8.78267C9.70181 10.08 10.6418 11.4927 10.8651 12.9827C10.8835 13.1068 10.8744 13.2335 10.8387 13.3538C10.8031 13.4741 10.7415 13.5852 10.6585 13.6793Z" fill="#629C86"/>
    <path d="M7.42243 10.1419L7.22643 9.98519C7.12386 9.90402 6.99689 9.85986 6.86609 9.85986C6.7353 9.85986 6.60833 9.90402 6.50576 9.98519L6.30576 10.1439C5.69772 10.5893 5.21539 11.1846 4.90576 11.8719C4.87056 11.9598 4.85745 12.055 4.86758 12.1491C4.87771 12.2433 4.91077 12.3335 4.96386 12.412C5.01695 12.4904 5.08846 12.5546 5.17213 12.599C5.25579 12.6434 5.34906 12.6665 5.44376 12.6665H8.28576C8.38029 12.666 8.47327 12.6424 8.55656 12.5977C8.63985 12.5529 8.71091 12.4885 8.76353 12.41C8.81615 12.3314 8.84873 12.2412 8.85841 12.1471C8.8681 12.0531 8.8546 11.9581 8.81909 11.8705C8.50938 11.1841 8.02844 10.5889 7.42243 10.1419Z" fill="#629C86"/>
</svg>
